<svg xmlns="http://www.w3.org/2000/svg" xmlns:xlink="http://www.w3.org/1999/xlink" width="1080" zoomAndPan="magnify" viewBox="0 0 810 809.999993" height="1080" preserveAspectRatio="xMidYMid meet" version="1.0"><defs><clipPath id="bbf0dbf4ad"><path d="M 16.085938 129 L 793.835938 129 L 793.835938 680 L 16.085938 680 Z M 16.085938 129 " clip-rule="nonzero"/></clipPath></defs><g clip-path="url(#bbf0dbf4ad)"><path fill="#056cf2" d="M 67.582031 129.828125 C 68.765625 129.824219 69.953125 129.824219 71.175781 129.820312 C 75.15625 129.8125 79.136719 129.816406 83.117188 129.820312 C 85.996094 129.816406 88.878906 129.8125 91.757812 129.808594 C 99.679688 129.800781 107.601562 129.800781 115.519531 129.800781 C 124.0625 129.800781 132.601562 129.792969 141.144531 129.785156 C 157.878906 129.773438 174.609375 129.769531 191.34375 129.769531 C 204.945312 129.769531 218.546875 129.765625 232.144531 129.761719 C 264.421875 129.75 296.695312 129.738281 328.96875 129.742188 C 330 129.742188 331.035156 129.742188 332.097656 129.742188 C 337.328125 129.742188 342.558594 129.742188 347.789062 129.742188 C 348.828125 129.742188 349.867188 129.742188 350.9375 129.742188 C 353.039062 129.742188 355.140625 129.742188 357.242188 129.742188 C 389.929688 129.742188 422.617188 129.730469 455.304688 129.710938 C 492.03125 129.6875 528.757812 129.675781 565.484375 129.675781 C 584.929688 129.675781 604.375 129.671875 623.820312 129.65625 C 640.375 129.640625 656.929688 129.636719 673.484375 129.648438 C 681.933594 129.652344 690.378906 129.652344 698.828125 129.640625 C 706.5625 129.628906 714.292969 129.628906 722.027344 129.644531 C 724.824219 129.644531 727.621094 129.644531 730.417969 129.636719 C 734.226562 129.625 738.03125 129.632812 741.835938 129.644531 C 743.460938 129.632812 743.460938 129.632812 745.117188 129.621094 C 759.296875 129.722656 770.855469 132.875 781.75 142.175781 C 790.625 151.691406 794.335938 160.765625 794.378906 173.890625 C 794.40625 175.640625 794.429688 177.390625 794.457031 179.195312 C 793.097656 192.800781 786.503906 201.363281 778.238281 211.773438 C 776.027344 214.613281 773.816406 217.457031 771.609375 220.300781 C 770.503906 221.722656 769.394531 223.144531 768.253906 224.609375 C 763.527344 230.726562 758.960938 236.957031 754.40625 243.203125 C 745.921875 254.792969 737.25 266.226562 728.519531 277.632812 C 721.863281 286.34375 715.308594 295.125 708.832031 303.96875 C 700.34375 315.554688 691.675781 326.996094 682.945312 338.398438 C 675.402344 348.273438 668.007812 358.246094 660.667969 368.269531 C 653.921875 377.464844 647.023438 386.539062 640.085938 395.59375 C 633.492188 404.207031 626.957031 412.832031 620.71875 421.707031 C 613.480469 432 605.832031 441.964844 598.179688 451.953125 C 591.417969 460.792969 584.753906 469.695312 578.179688 478.675781 C 569.695312 490.261719 561.027344 501.699219 552.296875 513.105469 C 545.640625 521.816406 539.085938 530.597656 532.605469 539.441406 C 524.117188 551.03125 515.449219 562.46875 506.71875 573.871094 C 500.0625 582.585938 493.507812 591.363281 487.03125 600.210938 C 478.375 612.027344 469.550781 623.710938 460.640625 635.335938 C 456.339844 640.953125 452.042969 646.566406 447.886719 652.289062 C 438.429688 665.289062 429.820312 675.929688 413.296875 679.210938 C 401.003906 680.855469 391.425781 678.625 380.496094 672.941406 C 367.585938 662.273438 358.339844 648.183594 348.546875 634.746094 C 342.664062 626.691406 336.621094 618.761719 330.554688 610.84375 C 321.964844 599.621094 313.519531 588.3125 305.167969 576.910156 C 298.542969 567.886719 291.785156 558.96875 284.980469 550.078125 C 276.390625 538.855469 267.941406 527.542969 259.59375 516.144531 C 252.964844 507.117188 246.207031 498.199219 239.402344 489.308594 C 227.1875 473.339844 215.261719 457.167969 203.386719 440.949219 C 192.230469 425.722656 180.933594 410.621094 169.464844 395.632812 C 161.914062 385.753906 154.519531 375.773438 147.171875 365.746094 C 140.546875 356.71875 133.789062 347.800781 126.984375 338.910156 C 118.394531 327.6875 109.949219 316.378906 101.597656 304.976562 C 94.972656 295.953125 88.214844 287.035156 81.410156 278.144531 C 72.828125 266.933594 64.375 255.640625 56.050781 244.242188 C 51.296875 237.746094 46.460938 231.324219 41.523438 224.964844 C 40.433594 223.558594 39.34375 222.148438 38.222656 220.699219 C 36.128906 218.003906 34.023438 215.3125 31.910156 212.632812 C 19.503906 196.632812 13.664062 184.066406 16.085938 163.445312 C 18.890625 152.550781 25.351562 142.863281 34.921875 136.847656 C 45.78125 131.140625 55.367188 129.792969 67.582031 129.828125 Z M 67.582031 129.828125 " fill-opacity="1" fill-rule="nonzero"/></g></svg>